<?xml version="1.0" standalone="no"?>
<!DOCTYPE svg PUBLIC "-//W3C//DTD SVG 20010904//EN"
 "http://www.w3.org/TR/2001/REC-SVG-20010904/DTD/svg10.dtd">
<svg version="1.0" xmlns="http://www.w3.org/2000/svg"
 width="365.000000pt" height="365.000000pt" viewBox="0 0 365.000000 365.000000"
 preserveAspectRatio="xMidYMid meet">
<metadata>
Created by potrace 1.11, written by Peter Selinger 2001-2013
</metadata>
<g transform="translate(0.000000,365.000000) scale(0.100000,-0.100000)"
fill="#000000" stroke="none">
<path d="M965 3055 c-176 -33 -314 -82 -441 -157 -149 -87 -225 -152 -308
-263 -120 -159 -153 -229 -188 -394 -19 -89 -21 -135 -24 -616 -3 -584 0 -622
63 -755 85 -177 277 -294 476 -289 138 3 259 54 356 151 64 64 137 204 145
280 4 29 8 294 10 588 3 294 7 555 11 580 43 307 195 537 478 724 l108 71 -32
13 c-17 7 -93 28 -169 46 -120 29 -156 33 -276 34 -77 0 -170 -5 -209 -13z"/>
<path d="M2308 3065 c-2 -3 -22 -7 -44 -10 -234 -36 -494 -160 -658 -314 -84
-79 -193 -238 -234 -341 -61 -153 -67 -233 -67 -835 0 -455 2 -517 18 -579 47
-185 178 -324 364 -386 80 -26 233 -23 318 8 72 27 145 75 202 132 51 52 117
175 131 245 7 31 12 251 13 565 1 283 6 553 11 600 18 171 64 305 153 445 57
90 199 224 326 307 l110 73 -31 13 c-113 46 -310 80 -466 80 -78 1 -144 -1
-146 -3z"/>
<path d="M3107 2614 c-1 -1 -29 -4 -62 -7 -76 -7 -133 -28 -193 -69 -114 -78
-193 -196 -231 -348 -18 -69 -20 -117 -20 -632 l-1 -558 26 -79 c23 -69 35
-88 93 -148 148 -154 188 -173 379 -180 120 -5 138 -4 195 17 130 47 237 140
292 255 63 129 65 147 61 675 -5 632 -10 672 -103 845 -56 104 -167 192 -280
219 -55 14 -144 19 -156 10z"/>
</g>
</svg>
